<svg width="153" height="100" viewBox="0 0 153 100" fill="none" xmlns="http://www.w3.org/2000/svg">
<path d="M43.1993 62.1316C43.1076 60.3298 42.8174 58.5127 42.298 56.6956C42.298 56.6498 42.2827 56.6193 42.2675 56.5735C40.3427 49.8701 35.6379 44.4647 28.2292 40.4794C27.3432 39.9908 26.4114 39.5327 25.4338 39.0899L24.5478 38.6929L23.952 39.2273L23.8298 39.3342C23.4327 39.6854 14.2062 48.1905 15.2144 60.2229C15.4588 63.1546 16.299 66.0406 17.7043 68.8501C17.7043 68.8807 17.7349 68.9112 17.7501 68.9265C19.3541 72.0873 21.7065 75.1717 24.8075 78.134C25.0366 78.3478 25.2657 78.5616 25.4949 78.7753C28.0306 81.1116 31.0093 83.3867 34.4616 85.5855L35.6837 86.3643L36.4933 85.158C36.7071 84.8373 39.4568 80.6535 41.3968 74.7136C41.5495 74.2556 41.687 73.7975 41.8245 73.3088C42.8021 69.919 43.4437 66.0711 43.2145 62.0858L43.1993 62.1316ZM37.4251 76.8514C36.4475 79.2487 35.4393 81.1421 34.7824 82.3026C32.9799 81.0963 31.3301 79.89 29.8179 78.6532C28.0764 77.2331 26.5489 75.813 25.2046 74.3472C23.6465 72.6675 22.3481 70.9726 21.3093 69.2472C20.072 67.2163 19.2013 65.1397 18.6819 63.0477C18.4375 62.0552 18.2695 61.0627 18.1931 60.0549C17.4446 51.2749 23.1577 44.3884 25.1588 42.2659C30.8871 45.0144 35.0268 48.5722 37.5015 52.863C38.3264 54.283 38.9679 55.7947 39.4262 57.3827C39.6859 58.2989 39.8845 59.1998 40.0067 60.116C40.0372 60.2534 40.0525 60.3756 40.0678 60.513C40.2358 61.7651 40.2969 63.0019 40.2664 64.2388C40.2205 66.4376 39.8997 68.5906 39.4262 70.6214C38.8916 72.9118 38.1736 75.019 37.4251 76.8514Z" fill="#EDC62E"/>
<path d="M42.2065 62.7727C41.5649 63.3072 40.9234 63.7805 40.2665 64.2386C34.0493 68.453 26.9462 69.2623 22.3941 69.2623C22.0122 69.2623 21.6608 69.2623 21.3095 69.2623C19.3848 69.2012 18.0863 69.018 17.7656 68.9722C17.7503 68.9416 17.735 68.9111 17.7197 68.8958L18.2391 65.7961L18.3919 64.8647L18.6821 63.0629L18.7585 62.6353C19.0487 62.6811 29.4667 64.1928 37.1808 58.5889C37.5016 58.3599 37.8071 58.1155 38.1126 57.856L40.0221 60.1464L40.6026 60.8335L42.237 62.788L42.2065 62.7727Z" fill="#EDC62E"/>
<path d="M41.6106 72.8202C41.4731 73.2935 41.3357 73.7669 41.1829 74.2249C39.9303 75.0953 38.5861 75.7824 37.2265 76.3169C34.5686 77.3857 31.8495 77.8896 29.6193 78.1187C28.275 78.2561 27.0988 78.3019 26.2281 78.3019C25.8615 78.3019 25.556 78.3019 25.2963 78.3019C25.0672 78.0881 24.838 77.8744 24.6089 77.6606L24.7464 76.0573V75.9657L24.9297 73.8432C24.9297 73.8432 24.9602 73.8432 24.9908 73.8432C25.8157 73.889 34.0034 74.2708 39.1971 70.0869L41.5801 72.8354L41.6106 72.8202Z" fill="#EDC62E"/>
<path d="M26.2282 78.4855C25.8615 78.4855 25.5408 78.4855 25.2964 78.4855H25.2352L25.1894 78.4396C24.9603 78.2259 24.7159 78.0121 24.502 77.7983L24.4409 77.7372L24.7923 73.645H24.9603C24.9603 73.645 25.0061 73.645 25.0519 73.645C25.9379 73.6908 34.0493 74.0115 39.1208 69.9345L39.243 69.8276L39.3652 69.9498L41.8398 72.7899L41.8093 72.8815C41.6718 73.3702 41.5343 73.8283 41.3815 74.2863V74.3474L41.3052 74.3779C40.0984 75.2025 38.7541 75.9202 37.303 76.4851C35.0116 77.4013 32.4453 78.0121 29.6499 78.3022C28.5348 78.4244 27.3891 78.4855 26.2434 78.4855H26.2282ZM25.3727 78.1037C25.6171 78.1037 25.9074 78.1037 26.2282 78.1037C27.3586 78.1037 28.5042 78.0426 29.6041 77.9205C32.3689 77.6456 34.9047 77.0348 37.1655 76.1339C38.5708 75.5842 39.8693 74.8971 41.0302 74.0878C41.1677 73.6756 41.2899 73.2633 41.4121 72.851L39.1971 70.301C34.2478 74.1642 26.8392 74.0726 25.113 73.9809L24.8075 77.5387C24.9908 77.722 25.1894 77.8899 25.3727 78.0732V78.1037Z" fill="#EDC62E"/>
<path d="M73.0479 51.6874C72.7577 47.4424 70.4052 43.8236 66.9224 42.2508C66.8766 42.2203 66.8307 42.205 66.7696 42.1745C66.8766 42.037 66.9835 41.8843 67.0904 41.7469C70.0844 37.5783 71.4592 32.6005 70.9704 27.699C70.4205 22.3088 67.8847 18.2013 63.6381 15.804C57.7418 12.4753 49.6304 13.2387 44.6658 15.7277C32.7203 21.6828 25.0825 36.937 23.9674 39.258C23.9063 39.3954 23.8605 39.487 23.8452 39.5328L27.7863 41.4262C27.7863 41.4262 27.9543 41.0751 28.2446 40.5101C30.0166 37.0286 36.8753 24.584 46.5906 19.7283C50.44 17.8043 56.9932 17.1477 61.5301 19.713C64.5088 21.3927 66.235 24.248 66.6321 28.1876C67.0293 31.9744 65.9295 35.8681 63.577 39.1358C63.1646 39.7161 62.7063 40.2963 62.2175 40.8918C54.9921 39.7924 47.6751 42.9685 44.4214 46.4194C42.2523 48.7251 42.6342 50.5421 43.0466 51.4125C43.8562 53.0921 45.8421 53.7793 48.9277 53.4281C55.3129 52.7104 60.2011 49.3817 63.7145 45.7933C64.188 45.946 64.6616 46.1293 65.1504 46.343C67.5487 47.4272 68.5569 49.9924 68.6944 52.0233C68.8318 54.0847 68.1903 56.8026 65.9295 58.2227C64.2339 59.3068 61.9884 59.994 59.2693 60.3146C53.7854 60.9254 48.3014 59.8871 43.4285 57.3523C43.0314 57.1538 42.6647 56.9401 42.2981 56.7263C40.3429 55.5811 38.7236 54.2984 37.5016 52.8936C37.4252 52.802 37.3336 52.7104 37.2572 52.6188L33.9271 55.4895C34.8436 56.6041 35.9282 57.6425 37.1808 58.6044C38.0668 59.2916 39.0292 59.9482 40.0832 60.5589C40.2512 60.6658 40.4192 60.7574 40.6025 60.8491C40.8928 61.017 41.183 61.1697 41.4732 61.3224C42.0537 61.6125 42.6342 61.9027 43.2147 62.1622C47.3238 63.9946 51.7384 64.9413 56.2142 64.9413C57.4057 64.9413 58.5819 64.8802 59.7734 64.7428C63.1646 64.361 66.0211 63.4449 68.2666 62.0095C71.5203 59.9329 73.3687 55.9934 73.0632 51.7179L73.0479 51.6874ZM48.4542 48.9999C48.3014 48.9999 48.164 49.0305 48.0265 49.0457C48.8055 48.3586 50.0581 47.4882 51.9065 46.679C53.0521 46.1751 55.1907 45.4116 57.7723 45.1673C55.2366 47.0912 52.1356 48.5876 48.4695 48.9999H48.4542Z" fill="#EDC62E"/>
<path d="M23.1884 32.1425C23.1884 34.0053 22.5774 35.7308 21.5539 37.105C21.3706 37.044 21.172 37.0134 20.9734 37.0134C19.7361 37.0134 18.6821 38.1434 18.1933 39.7772C17.1698 40.22 16.0547 40.4643 14.8632 40.4643C10.2499 40.4643 6.52271 36.7386 6.52271 32.1272C6.52271 27.5158 10.2499 23.79 14.8632 23.79C19.4764 23.79 23.2036 27.5311 23.2036 32.1272L23.1884 32.1425Z" fill="#EDC62E"/>
<path d="M14.1757 25.1032L13.916 24.0038C13.4577 22.0646 13.4577 20.0337 13.916 18.0945L14.1757 16.9951L16.3448 17.5143L16.0851 18.6137C15.7032 20.217 15.7032 21.8966 16.0851 23.4999L16.3448 24.5993L14.1757 25.1185V25.1032Z" fill="#EDC62E"/>
<path d="M7.74479 28.9509L7.02684 28.0805C5.75897 26.5536 4.85771 24.7212 4.41471 22.782L4.15503 21.6826L6.33944 21.1787L6.59912 22.2781C6.96574 23.8814 7.71424 25.3931 8.75298 26.6605L9.47093 27.5308L7.74479 28.9509Z" fill="#EDC62E"/>
<path d="M51.9827 83.1579V80.2261H59.147V77.386H51.9827V74.5917H59.5747V71.6294H48.8054V86.1507H59.8649V83.1579H51.9827Z" fill="#EDC62E"/>
<path d="M69.5957 71.6445V77.1416C68.725 76.0574 67.5793 75.691 66.3726 75.691C63.3633 75.691 61.2705 77.7065 61.2705 81.02C61.2705 84.3335 63.3327 86.3338 66.342 86.3338C67.6252 86.3338 68.7861 86.0589 69.7485 84.8374L69.9318 86.1506H72.605V71.6445H69.5957ZM66.8003 83.6616C65.2116 83.6616 64.2951 82.5012 64.2951 81.0353C64.2951 79.5694 65.2727 78.3937 66.8003 78.3937C68.1751 78.3937 69.5652 79.3098 69.5652 81.0353C69.5652 82.9745 68.1445 83.6616 66.8003 83.6616Z" fill="#EDC62E"/>
<path d="M82.4424 75.9049V81.1882C82.4424 82.5166 81.5106 83.7229 80.1205 83.6924C78.6846 83.6924 78.0125 82.8831 78.0125 81.3103V75.8896H75.0032V81.3256C75.0032 85.3109 76.9737 86.3493 79.2803 86.3493C80.5329 86.3645 81.6939 86.0133 82.5951 84.7918L82.7021 86.1355H85.3906V75.8896H82.4424V75.9049Z" fill="#EDC62E"/>
<path d="M95.0294 82.8526C94.5253 83.3565 93.6087 83.6161 92.9519 83.6161C91.5618 83.6161 90.3245 82.6846 90.3245 81.0508C90.3245 79.4169 91.5312 78.3786 93.013 78.3786C93.6393 78.3786 94.3267 78.5008 94.9377 78.9741L96.6027 77.0807C95.564 75.9966 94.3878 75.6606 92.8908 75.6606C89.912 75.6606 87.3152 77.5846 87.3152 81.0355C87.3152 84.7307 89.9273 86.3646 92.9213 86.3646C94.235 86.3646 95.7015 85.9828 96.9235 84.7918L95.0294 82.8373V82.8526Z" fill="#EDC62E"/>
<path d="M106.089 75.9046L105.982 77.0956C105.447 76.1795 104.241 75.6756 102.958 75.6756C99.933 75.6298 97.5806 77.6301 97.5806 81.0352C97.5806 84.4403 99.7955 86.41 102.866 86.3795C103.859 86.3642 105.341 85.952 106.013 84.8678L106.181 86.1505H108.884V75.9046H106.089ZM103.278 83.7226C101.781 83.7226 100.575 82.7301 100.575 81.0352C100.575 79.3403 101.781 78.3172 103.278 78.3172C105.066 78.3172 105.997 79.6609 105.997 81.1421C105.997 82.4247 104.959 83.7379 103.278 83.7379V83.7226Z" fill="#EDC62E"/>
<path d="M117.882 83.4328C117.546 83.6008 116.98 83.6771 116.629 83.6771C116.064 83.6771 115.468 83.387 115.468 82.3029V78.4397H118.08V75.9507H115.483V73.0801L112.489 73.416V75.9507H110.672V78.4397H112.489V82.3029C112.489 85.4942 114.17 86.4714 116.385 86.3645C117.194 86.3187 117.805 86.1966 118.539 85.9065L117.851 83.4175L117.882 83.4328Z" fill="#EDC62E"/>
<path d="M120.127 75.8743V86.1507H123.121V75.8743H120.127ZM119.914 73.1869C119.914 75.4315 123.32 75.4315 123.32 73.1869C123.32 70.9423 119.914 70.9423 119.914 73.1869Z" fill="#EDC62E"/>
<path d="M130.637 75.6758C127.23 75.6758 125.031 77.9509 125.031 81.0506C125.031 84.1504 127.169 86.3797 130.637 86.3797C134.104 86.3797 136.258 84.1351 136.258 81.0506C136.258 77.9662 134.059 75.6758 130.637 75.6758ZM130.637 83.7228C128.834 83.7228 128.055 82.3333 128.055 81.0506C128.055 79.768 128.85 78.3479 130.637 78.3479C132.424 78.3479 133.234 79.7527 133.234 81.0506C133.234 82.3486 132.47 83.7228 130.637 83.7228Z" fill="#EDC62E"/>
<path d="M144.324 75.6606C143.071 75.6453 141.91 76.0423 141.009 77.2181L140.902 75.9049H138.198V86.1507H141.146V80.8675C141.146 79.539 142.078 78.3327 143.468 78.3633C144.889 78.3633 145.576 79.1726 145.576 80.7453V86.166H148.586V80.7301C148.586 76.7447 146.615 75.6606 144.308 75.6606H144.324Z" fill="#EDC62E"/>
<path d="M92.3715 58.5432C92.3715 58.5432 92.3409 58.5432 92.2798 58.5432L91.623 59.0776C89.6982 60.574 87.5444 61.3222 85.253 61.3222C83.8935 61.3222 82.6256 60.8794 81.4494 60.0243C80.2121 59.1081 79.4941 57.9935 79.2956 56.6803V56.5581H79.4025C87.6971 55.9474 92.2034 55.5045 92.8145 55.2908C93.7004 54.9396 94.1282 54.283 94.1282 53.2599C94.1282 50.5267 93.2422 48.1752 91.4855 46.2665C89.6982 44.312 87.4375 43.3042 84.7642 43.3042C81.8924 43.3042 79.433 44.4494 77.4472 46.7093C75.5683 48.8928 74.606 51.4887 74.606 54.4204C74.606 57.7033 75.5989 60.3755 77.5694 62.3605C79.54 64.3303 82.2132 65.3228 85.528 65.3228C88.8428 65.3228 91.5313 64.1929 93.6241 61.9788C93.9143 61.6734 93.9296 61.5665 93.9449 61.5665C93.9449 61.536 93.8532 61.3069 93.1963 60.0548C92.57 58.8638 92.4326 58.6195 92.402 58.5737L92.3715 58.5432ZM80.8078 48.847C81.8619 47.7629 83.0839 47.1979 84.4434 47.1979C85.6655 47.1979 86.7653 47.6713 87.7277 48.618C88.6901 49.5647 89.1789 50.6641 89.1789 51.9009C89.1789 52.1605 88.7817 52.3285 87.8193 52.4659C84.8406 52.8934 82.2438 53.1225 80.1204 53.1225C79.3719 53.1225 79.2039 52.8018 79.2039 52.5422C79.2039 51.1833 79.7386 49.9464 80.7926 48.847H80.8078Z" fill="#EDC62E"/>
<path d="M113.818 58.5432C113.818 58.5432 113.788 58.5432 113.727 58.5432L113.07 59.0776C111.145 60.574 109.007 61.3222 106.7 61.3222C105.341 61.3222 104.073 60.8794 102.896 60.0243C101.659 59.1081 100.941 57.9935 100.743 56.6803V56.5581H100.85C109.144 55.9474 113.65 55.5045 114.261 55.2908C115.147 54.9396 115.575 54.283 115.575 53.2599C115.575 50.5267 114.689 48.1752 112.933 46.2665C111.145 44.312 108.869 43.3042 106.196 43.3042C103.324 43.3042 100.865 44.4494 98.879 46.7093C97.0001 48.8928 96.053 51.4887 96.053 54.4204C96.053 57.7033 97.0459 60.3755 99.0164 62.3605C100.972 64.3303 103.645 65.3228 106.96 65.3228C110.275 65.3228 112.963 64.1929 115.056 61.9788C115.346 61.6734 115.361 61.5665 115.361 61.5665C115.361 61.536 115.27 61.3069 114.613 60.0548C113.987 58.8638 113.849 58.6195 113.818 58.5737V58.5432ZM102.24 48.847C103.294 47.7629 104.516 47.1979 105.875 47.1979C107.082 47.1979 108.197 47.6713 109.159 48.618C110.122 49.5647 110.626 50.6641 110.626 51.9009C110.626 52.1605 110.229 52.3285 109.251 52.4659C106.288 52.8934 103.691 53.1225 101.552 53.1225C100.804 53.1225 100.651 52.8018 100.651 52.5422C100.651 51.1833 101.186 49.9464 102.24 48.847Z" fill="#EDC62E"/>
</svg>
