<svg width="26" height="26" viewBox="0 0 26 26" fill="none" xmlns="http://www.w3.org/2000/svg">
<path d="M15.1984 18.4816C15.4462 18.5954 15.7254 18.6214 15.99 18.5553C16.2546 18.4892 16.4888 18.335 16.654 18.118L17.08 17.56C17.3036 17.2619 17.5934 17.02 17.9267 16.8534C18.2599 16.6867 18.6274 16.6 19 16.6H22.6C23.2365 16.6 23.847 16.8529 24.2971 17.3029C24.7471 17.753 25 18.3635 25 19V22.6C25 23.2365 24.7471 23.847 24.2971 24.2971C23.847 24.7471 23.2365 25 22.6 25C16.8713 25 11.3773 22.7243 7.32649 18.6735C3.27571 14.6227 1 9.12868 1 3.4C1 2.76348 1.25286 2.15303 1.70294 1.70294C2.15303 1.25286 2.76348 1 3.4 1H7C7.63652 1 8.24697 1.25286 8.69706 1.70294C9.14714 2.15303 9.4 2.76348 9.4 3.4V7C9.4 7.37259 9.31325 7.74006 9.14663 8.07331C8.98 8.40657 8.73807 8.69645 8.44 8.92L7.8784 9.3412C7.6581 9.50941 7.50282 9.7487 7.43895 10.0184C7.37507 10.2881 7.40654 10.5717 7.528 10.8208C9.16802 14.1518 11.8653 16.8458 15.1984 18.4816Z" stroke="#EDC62E" stroke-width="2" stroke-linecap="round" stroke-linejoin="round"/>
</svg>
