<svg width="32" height="32" viewBox="0 0 32 32" fill="none" xmlns="http://www.w3.org/2000/svg">
<g clip-path="url(#clip0_147_1295)">
<path fill-rule="evenodd" clip-rule="evenodd" d="M14.5804 0.106445H17.4073C21.2897 0.106445 23.5585 0.676681 25.5726 1.75649C27.5866 2.83629 29.1759 4.41354 30.2436 6.42759C31.3234 8.4416 31.8936 10.7104 31.8936 14.5928V17.4076C31.8936 21.2901 31.3234 23.5588 30.2436 25.5729C29.1638 27.5869 27.5866 29.1763 25.5726 30.244C23.5585 31.3238 21.2897 31.894 17.4073 31.894H14.5925C10.7101 31.894 8.44129 31.3238 6.42728 30.244C4.41328 29.1642 2.82391 27.5869 1.75624 25.5729C0.676431 23.5588 0.106201 21.2901 0.106201 17.4076V14.5928C0.106201 10.7104 0.676431 8.4416 1.75624 6.42759C2.83604 4.41354 4.41328 2.82416 6.42728 1.75649C8.4292 0.676681 10.7101 0.106445 14.5804 0.106445Z" fill="#0068FF"/>
<path opacity="0.12" fill-rule="evenodd" clip-rule="evenodd" d="M31.8935 16.9434V17.4079C31.8935 21.2903 31.3233 23.5591 30.2435 25.5731C29.1637 27.5871 27.5864 29.1765 25.5724 30.2442C23.5584 31.324 21.2896 31.8943 17.4072 31.8943H14.5924C11.4156 31.8943 9.31917 31.5124 7.55866 30.7821L4.65625 27.7933L31.8935 16.9434Z" fill="#001A33"/>
<path fill-rule="evenodd" clip-rule="evenodd" d="M4.97875 27.8971C6.46541 28.0614 8.3241 27.6375 9.64384 26.9968C15.3746 30.1644 24.3328 30.0131 29.7553 26.5428C29.9656 26.2274 30.1621 25.8993 30.3444 25.5592C31.4282 23.5379 32.0005 21.2608 32.0005 17.3642V14.5392C32.0005 10.6426 31.4282 8.3655 30.3444 6.34415C29.2728 4.32279 27.6777 2.7398 25.6563 1.65605C23.6349 0.572313 21.3579 0 17.4613 0H14.6241C11.3054 0 9.15104 0.417763 7.34093 1.21532C7.24199 1.30392 7.1449 1.39404 7.04986 1.48566C1.73929 6.60499 1.33561 17.702 5.83878 23.73C5.8438 23.7389 5.84937 23.7479 5.85548 23.757C6.54957 24.7798 5.87984 26.5699 4.83263 27.617C4.66215 27.7754 4.72304 27.8728 4.97875 27.8971Z" fill="white"/>
<path d="M13.1605 10.8799H6.93646V12.2145H11.2556L6.99707 17.4922C6.86363 17.6863 6.7666 17.8683 6.7666 18.2808V18.6205H12.6387C12.9299 18.6205 13.1726 18.3779 13.1726 18.0867V17.3708H8.63502L12.6387 12.3479C12.6994 12.2751 12.8086 12.1417 12.8572 12.081L12.8814 12.0446C13.1119 11.7049 13.1605 11.4137 13.1605 11.0619V10.8799Z" fill="#0068FF"/>
<path d="M21.0827 18.6205H21.9684V10.8799H20.6338V18.1716C20.6338 18.4143 20.8279 18.6205 21.0827 18.6205Z" fill="#0068FF"/>
<path d="M16.5209 12.6035C14.8466 12.6035 13.4878 13.9624 13.4878 15.6367C13.4878 17.311 14.8466 18.6698 16.5209 18.6698C18.1952 18.6698 19.5541 17.311 19.5541 15.6367C19.5663 13.9624 18.2074 12.6035 16.5209 12.6035ZM16.5209 17.4202C15.5382 17.4202 14.7375 16.6194 14.7375 15.6367C14.7375 14.6539 15.5382 13.8532 16.5209 13.8532C17.5037 13.8532 18.3044 14.6539 18.3044 15.6367C18.3044 16.6194 17.5158 17.4202 16.5209 17.4202Z" fill="#0068FF"/>
<path d="M25.9114 12.5547C24.2249 12.5547 22.854 13.9257 22.854 15.6121C22.854 17.2986 24.2249 18.6696 25.9114 18.6696C27.5978 18.6696 28.9688 17.2986 28.9688 15.6121C28.9688 13.9257 27.5978 12.5547 25.9114 12.5547ZM25.9114 17.4199C24.9165 17.4199 24.1158 16.6191 24.1158 15.6243C24.1158 14.6294 24.9165 13.8286 25.9114 13.8286C26.9063 13.8286 27.7071 14.6294 27.7071 15.6243C27.7071 16.6191 26.9063 17.4199 25.9114 17.4199Z" fill="#0068FF"/>
<path d="M18.8522 18.6204H19.568V12.7725H18.3184V18.0987C18.3184 18.3778 18.561 18.6204 18.8522 18.6204Z" fill="#0068FF"/>
</g>
<defs>
<clipPath id="clip0_147_1295">
<rect width="32" height="32" fill="white"/>
</clipPath>
</defs>
</svg>
