<svg width="61" height="48" viewBox="0 0 61 48" fill="none" xmlns="http://www.w3.org/2000/svg">
<g clip-path="url(#clip0_147_1824)">
<path d="M22.8913 47.896H18.1377V41.688H22.7626V42.952H19.497V44.152H22.5695V45.368H19.497V46.616H22.8832V47.896H22.8913Z" fill="#FDD22C"/>
<path d="M28.3603 41.704V47.904H27.2101L27.1297 47.344C26.7195 47.864 26.2208 47.984 25.6658 47.984C24.3709 47.984 23.4941 47.08 23.4941 45.712C23.4941 44.344 24.395 43.432 25.6899 43.432C26.2047 43.432 26.6954 43.592 27.0734 44.056V41.704H28.3684H28.3603ZM24.7891 45.712C24.7891 46.344 25.1832 46.84 25.8669 46.84C26.446 46.84 27.0493 46.544 27.0493 45.712C27.0493 44.976 26.4541 44.584 25.8669 44.584C25.2074 44.584 24.7891 45.056 24.7891 45.712Z" fill="#FDD22C"/>
<path d="M30.6768 43.52V45.832C30.6768 46.504 30.9744 46.848 31.5857 46.848C32.1809 46.856 32.583 46.344 32.583 45.776V43.512H33.8458V47.888H32.6876L32.6394 47.312C32.2452 47.832 31.7466 47.984 31.2157 47.976C30.2264 47.976 29.3818 47.536 29.3818 45.832V43.512H30.6768V43.52Z" fill="#FDD22C"/>
<path d="M38.8088 47.32C38.286 47.832 37.6506 47.992 37.0876 47.992C35.8006 47.992 34.6826 47.288 34.6826 45.712C34.6826 44.24 35.7926 43.416 37.0795 43.416C37.723 43.416 38.2297 43.56 38.6721 44.016L37.9562 44.824C37.6908 44.624 37.3932 44.568 37.1278 44.568C36.4843 44.568 35.9695 44.984 35.9695 45.712C35.9695 46.44 36.5004 46.808 37.1036 46.808C37.3852 46.808 37.7793 46.696 37.9964 46.48L38.8088 47.312V47.32Z" fill="#FDD22C"/>
<path d="M42.7503 43.52H43.9568V47.896H42.7985L42.7261 47.344C42.4285 47.808 41.8012 47.984 41.3749 47.992C40.0558 48 39.0986 47.152 39.0986 45.704C39.0986 44.256 40.104 43.4 41.407 43.416C41.962 43.416 42.4768 43.632 42.71 44.016L42.7583 43.512L42.7503 43.52ZM40.3775 45.712C40.3775 46.44 40.8923 46.864 41.5357 46.864C42.2596 46.864 42.702 46.304 42.702 45.752C42.702 45.12 42.2998 44.544 41.5357 44.544C40.8923 44.544 40.3775 44.976 40.3775 45.704V45.712Z" fill="#FDD22C"/>
<path d="M46.788 42.32V43.544H47.898V44.608H46.772V46.256C46.772 46.72 47.0293 46.84 47.2706 46.84C47.4235 46.84 47.6648 46.808 47.8015 46.736L48.0991 47.8C47.7774 47.928 47.52 47.976 47.1741 47.992C46.217 48.04 45.5011 47.616 45.5011 46.256V44.608H44.7129V43.544H45.5011V42.464L46.788 42.32Z" fill="#FDD22C"/>
<path d="M50.1416 42.36C50.1416 43.32 48.6777 43.32 48.6777 42.36C48.6777 41.4 50.1416 41.4 50.1416 42.36ZM48.7743 43.512V47.896H50.0612V43.512H48.7743Z" fill="#FDD22C"/>
<path d="M50.8818 45.72C50.8818 44.4 51.8229 43.424 53.2868 43.424C54.7506 43.424 55.6997 44.4 55.6997 45.72C55.6997 47.04 54.7828 48 53.2868 48C51.7907 48 50.8818 47.04 50.8818 45.72ZM54.4048 45.72C54.4048 45.168 54.067 44.568 53.2868 44.568C52.5066 44.568 52.1848 45.168 52.1848 45.72C52.1848 46.272 52.5146 46.864 53.2868 46.864C54.0589 46.864 54.4048 46.296 54.4048 45.72Z" fill="#FDD22C"/>
<path d="M59.7052 47.896V45.584C59.7052 44.912 59.4076 44.568 58.7963 44.568C58.2011 44.56 57.7989 45.072 57.7989 45.64V47.904H56.5361V43.528H57.6944L57.7426 44.088C58.1367 43.584 58.6354 43.416 59.1663 43.424C60.1556 43.424 61.0001 43.888 61.0001 45.584V47.904H59.7052V47.896Z" fill="#FDD22C"/>
<path d="M11.558 46.968L10.8341 46.256C4.43976 39.944 1.58441 33.824 2.34048 28.064C2.75068 24.92 4.29499 21.896 6.79644 19.312C8.67051 17.376 10.4239 16.368 10.4963 16.328L11.0835 15.992L11.6304 16.392C16.6655 20.104 19.3841 24.488 19.7059 29.416C19.9552 33.176 18.7407 37.288 16.2151 41.304C14.3249 44.304 12.3785 46.192 12.29 46.272L11.558 46.976V46.968ZM10.9628 18.48C10.3516 18.904 9.31397 19.68 8.24422 20.792C6.04841 23.08 4.75345 25.624 4.39955 28.344C3.77217 33.2 6.17711 38.48 11.55 44.024C12.2578 43.24 13.3839 41.888 14.4777 40.144C16.0703 37.608 17.9042 33.712 17.6307 29.528C17.3572 25.424 15.1132 21.712 10.9628 18.472V18.48Z" fill="#194DB6"/>
<path d="M11.3896 36.296C10.4084 36.296 9.3949 36.224 8.37341 36.08C5.51806 35.68 3.54746 34.856 3.45898 34.824L4.26331 32.92C4.26331 32.92 6.1213 33.68 8.71927 34.04C11.0679 34.368 14.5587 34.424 17.8162 32.864L18.717 34.728C16.5454 35.768 14.0519 36.296 11.3816 36.296H11.3896Z" fill="#194DB6"/>
<path d="M10.5768 40.92C8.30857 40.92 6.59535 40.48 6.45862 40.448C5.90363 40.304 5.57386 39.736 5.71864 39.184C5.86342 38.632 6.43449 38.304 6.98947 38.448C7.03773 38.464 12.113 39.736 15.8692 37.648C16.3679 37.368 17.0033 37.544 17.2848 38.048C17.5663 38.544 17.3894 39.176 16.8827 39.456C14.8156 40.6 12.4991 40.92 10.5768 40.92Z" fill="#194DB6"/>
<path d="M22.6981 39.368C21.371 39.368 20.5264 37.832 19.9956 36.648C19.1671 34.808 18.3065 31.864 17.4378 27.904C17.3172 27.344 17.6711 26.792 18.2341 26.672C18.7971 26.552 19.3521 26.904 19.4728 27.464C20.2047 30.816 20.9286 33.4 21.6123 35.136C22.0949 36.352 22.4568 36.904 22.6579 37.144C22.9153 36.68 23.1807 35.656 23.1727 34.864C23.1727 34.416 23.3818 33.992 23.7437 33.728C24.1057 33.464 24.5722 33.384 24.9985 33.52C28.9477 34.744 32.1087 34.952 34.3849 34.136C35.889 33.6 36.9829 32.144 37.2403 30.344C37.4977 28.56 36.8623 26.872 35.5914 25.952C35.2375 25.696 34.8756 25.472 34.5136 25.272C32.1409 26.832 29.1005 28.144 25.5695 28.144C25.0789 28.144 24.5802 28.12 24.0735 28.064C23.3818 27.992 21.2905 27.776 20.9205 26.288C20.7919 25.784 20.8079 24.784 22.3201 23.776C23.8322 22.768 26.2693 22.08 28.6903 21.984C30.2105 21.928 32.2454 22.072 34.2965 22.888C34.763 22.536 35.1973 22.184 35.5914 21.84C37.6103 20.064 38.8811 17.704 39.1546 15.192C39.4441 12.552 38.6881 10.424 36.9105 8.88C34.2563 6.568 29.8244 6.056 27.0093 6.752C18.9017 8.744 11.9121 17.728 11.8397 17.824C11.4939 18.28 10.8343 18.36 10.3839 18.016C9.92542 17.672 9.83695 17.024 10.1909 16.568C10.2632 16.472 12.073 14.128 14.9766 11.496C18.9097 7.928 22.7946 5.656 26.5186 4.744C29.929 3.904 35.0686 4.528 38.2859 7.328C40.5702 9.32 41.5917 12.12 41.2217 15.424C40.8919 18.448 39.3798 21.28 36.9668 23.392C36.7577 23.576 36.5486 23.752 36.3234 23.936C36.4923 24.04 36.6531 24.16 36.822 24.28C38.7203 25.656 39.6694 28.096 39.3074 30.64C38.9374 33.2 37.3207 35.288 35.0928 36.088C32.543 37 29.2131 36.88 25.1915 35.744C25.0226 37.08 24.4435 39.2 22.8911 39.368C22.8268 39.368 22.7624 39.376 22.6981 39.376V39.368ZM23.1164 25.76C23.3255 25.84 23.6874 25.936 24.2907 26C27.2425 26.304 29.8727 25.504 32.0363 24.336C29.2936 23.696 26.768 24.24 25.843 24.488C24.3309 24.896 23.4703 25.44 23.1244 25.76H23.1164Z" fill="#194DB6"/>
<path d="M6.29819 16.464C5.85581 16.464 5.40539 16.416 4.96301 16.32C1.56876 15.592 -0.594875 12.256 0.145104 8.88C0.877039 5.504 4.23912 3.352 7.63337 4.088C9.27419 4.44 10.6818 5.408 11.5906 6.816C12.4995 8.224 12.8052 9.896 12.4513 11.528C12.1617 12.856 11.47 14.024 10.4405 14.912L9.87743 15.4L9.23398 15.024C9.23398 15.024 9.20985 15.008 9.18572 15.008C9.00072 14.968 8.58247 15.192 8.23661 15.824L8.00336 16.24L7.52881 16.336C7.1186 16.416 6.7084 16.464 6.29015 16.464H6.29819ZM6.29819 6.008C4.35977 6.008 2.60634 7.352 2.18005 9.312C1.68941 11.568 3.13719 13.808 5.40539 14.296C5.83972 14.392 6.27406 14.416 6.70035 14.376C7.43229 13.352 8.46987 12.816 9.47527 12.96C9.94178 12.432 10.2635 11.792 10.4163 11.088C10.6576 9.992 10.4485 8.872 9.83722 7.928C9.22593 6.984 8.28487 6.336 7.18295 6.096C6.88535 6.032 6.58775 6 6.29015 6L6.29819 6.008Z" fill="#194DB6"/>
<path d="M6.37006 5.112L6.35397 4.408C6.32984 3.112 6.61135 1.808 7.17438 0.64L7.48002 0L9.3541 0.888L9.04846 1.528C8.62217 2.408 8.41304 3.392 8.42913 4.368L8.44521 5.072L6.36201 5.112H6.37006Z" fill="#194DB6"/>
<path d="M1.93076 6.768L1.60903 6.144C1.01383 4.992 0.684055 3.696 0.667969 2.4V1.696L2.73508 1.672V2.376C2.75921 3.352 3.00051 4.328 3.45093 5.2L3.77266 5.824L1.92272 6.776L1.93076 6.768Z" fill="#194DB6"/>
<path d="M10.3758 29.296C9.73229 29.296 9.0647 29.24 8.38102 29.12C5.46937 28.616 3.28965 27.208 3.20117 27.152L4.34331 25.424C4.34331 25.424 6.29782 26.68 8.79927 27.096C11.9924 27.624 14.6226 26.592 16.6254 24.032L18.2662 25.304C16.2071 27.944 13.5046 29.304 10.3758 29.304V29.296Z" fill="#194DB6"/>
<path d="M45.7739 28.52C46.3932 28.52 46.9643 28.624 47.4871 28.824C48.0099 29.024 48.4684 29.32 48.8545 29.712C49.2405 30.104 49.5381 30.584 49.7634 31.144C49.9805 31.712 50.0931 32.36 50.0931 33.088C50.0931 33.376 50.061 33.568 49.9966 33.656C49.9323 33.744 49.8197 33.8 49.6508 33.8H42.7657C42.7818 34.44 42.8703 35 43.0312 35.48C43.192 35.96 43.4172 36.352 43.6988 36.664C43.9803 36.976 44.3181 37.216 44.7122 37.368C45.1063 37.528 45.5407 37.6 46.0313 37.6C46.4817 37.6 46.8678 37.552 47.1976 37.448C47.5273 37.344 47.8088 37.232 48.0421 37.104C48.2754 36.976 48.4764 36.864 48.6373 36.76C48.7982 36.656 48.9349 36.608 49.0556 36.608C49.136 36.608 49.2003 36.624 49.2566 36.656C49.3129 36.688 49.3612 36.728 49.4014 36.784L49.9242 37.456C49.691 37.728 49.4175 37.96 49.1119 38.16C48.7982 38.36 48.4684 38.52 48.1065 38.648C47.7525 38.776 47.3745 38.872 46.9965 38.936C46.6104 39 46.2404 39.032 45.8624 39.032C45.1465 39.032 44.487 38.912 43.8837 38.68C43.2805 38.44 42.7577 38.096 42.3234 37.632C41.881 37.168 41.5432 36.592 41.2938 35.912C41.0445 35.232 40.9238 34.448 40.9238 33.56C40.9238 32.848 41.0364 32.184 41.2536 31.568C41.4708 30.952 41.7925 30.416 42.2107 29.96C42.629 29.504 43.1357 29.144 43.739 28.888C44.3422 28.632 45.0178 28.504 45.7659 28.504L45.7739 28.52ZM45.8061 29.864C44.9455 29.864 44.2618 30.112 43.7631 30.616C43.2644 31.12 42.9507 31.808 42.822 32.68H48.4282C48.4282 32.272 48.3719 31.888 48.2512 31.544C48.1306 31.2 47.9617 30.904 47.7365 30.656C47.5112 30.408 47.2378 30.216 46.908 30.072C46.5782 29.936 46.2163 29.864 45.8061 29.864Z" fill="#194DB6"/>
<path d="M45.8705 39.176C45.1466 39.176 44.4629 39.056 43.8516 38.816C43.2323 38.576 42.6934 38.208 42.251 37.736C41.8006 37.264 41.4548 36.672 41.1974 35.984C40.948 35.296 40.8193 34.496 40.8193 33.6C40.8193 32.88 40.9319 32.192 41.1572 31.568C41.3824 30.936 41.7121 30.384 42.1384 29.92C42.5647 29.456 43.0875 29.08 43.6988 28.824C44.3101 28.56 45.0099 28.424 45.7659 28.424C46.3933 28.424 46.9885 28.528 47.5194 28.736C48.0583 28.944 48.5328 29.248 48.9269 29.648C49.3211 30.048 49.6347 30.544 49.8599 31.12C50.0852 31.696 50.1897 32.36 50.1897 33.104C50.1897 33.416 50.1575 33.624 50.0771 33.736C49.9886 33.864 49.8439 33.928 49.6347 33.928H42.8704C42.8945 34.512 42.9749 35.024 43.1277 35.464C43.2806 35.928 43.4977 36.312 43.7712 36.616C44.0447 36.912 44.3664 37.144 44.7444 37.296C45.1225 37.448 45.5488 37.52 46.0153 37.52C46.4496 37.52 46.8357 37.472 47.1494 37.376C47.4711 37.28 47.7446 37.168 47.9778 37.048C48.2111 36.928 48.4041 36.808 48.565 36.712C48.75 36.6 48.9028 36.544 49.0476 36.544C49.1441 36.544 49.2326 36.568 49.305 36.608C49.3774 36.648 49.4337 36.704 49.49 36.768L50.0691 37.504L50.0128 37.576C49.7715 37.856 49.49 38.104 49.1682 38.304C48.8465 38.504 48.5006 38.672 48.1387 38.808C47.7767 38.936 47.3987 39.04 47.0126 39.104C46.6266 39.168 46.2405 39.2 45.8625 39.2L45.8705 39.176ZM45.774 28.632C45.042 28.632 44.3745 28.76 43.7953 29.008C43.2162 29.256 42.7095 29.608 42.3073 30.056C41.9052 30.504 41.5834 31.032 41.3743 31.632C41.1572 32.232 41.0526 32.896 41.0526 33.592C41.0526 34.464 41.1732 35.24 41.4145 35.904C41.6558 36.568 41.9937 37.128 42.4199 37.584C42.8462 38.032 43.361 38.376 43.9401 38.608C44.5273 38.84 45.1788 38.96 45.8785 38.96C46.2405 38.96 46.6185 38.928 46.9885 38.864C47.3665 38.8 47.7285 38.704 48.0824 38.584C48.4282 38.456 48.758 38.296 49.0637 38.104C49.3371 37.928 49.5865 37.72 49.7956 37.488L49.3291 36.888C49.2969 36.84 49.2567 36.808 49.2165 36.784C49.1763 36.76 49.128 36.752 49.0717 36.752C48.9752 36.752 48.8545 36.8 48.7098 36.888C48.5489 36.992 48.3478 37.104 48.1065 37.232C47.8652 37.36 47.5757 37.48 47.2378 37.584C46.9 37.688 46.4979 37.744 46.0394 37.744C45.5407 37.744 45.0903 37.664 44.6801 37.504C44.2699 37.344 43.916 37.096 43.6264 36.768C43.3369 36.44 43.1036 36.032 42.9347 35.544C42.7738 35.056 42.6773 34.48 42.6693 33.832V33.72H49.6589C49.7876 33.72 49.876 33.688 49.9163 33.632C49.9484 33.592 49.9886 33.464 49.9886 33.12C49.9886 32.408 49.8841 31.76 49.6669 31.216C49.4578 30.672 49.1602 30.2 48.7902 29.824C48.4202 29.448 47.9698 29.152 47.4631 28.96C46.9483 28.76 46.3853 28.664 45.7901 28.664L45.774 28.632ZM48.5409 32.792H42.6934L42.7095 32.664C42.8382 31.768 43.168 31.056 43.6827 30.536C44.2055 30.016 44.9214 29.752 45.8062 29.752C46.2244 29.752 46.6105 29.824 46.9483 29.968C47.2861 30.112 47.5757 30.32 47.817 30.576C48.0502 30.832 48.2352 31.144 48.3559 31.504C48.4765 31.856 48.5409 32.256 48.5409 32.672V32.784V32.792ZM42.9508 32.568H48.3156C48.3076 32.216 48.2513 31.88 48.1467 31.576C48.0341 31.248 47.8652 30.96 47.6561 30.728C47.447 30.496 47.1815 30.304 46.8679 30.176C46.5542 30.04 46.2003 29.976 45.8142 29.976C44.9857 29.976 44.3262 30.216 43.8436 30.696C43.3851 31.152 43.0875 31.784 42.9508 32.568Z" fill="#194DB6"/>
<path d="M56.4956 28.52C57.1149 28.52 57.686 28.624 58.2088 28.824C58.7316 29.024 59.1901 29.32 59.5762 29.712C59.9622 30.104 60.2598 30.584 60.485 31.144C60.7022 31.712 60.8148 32.36 60.8148 33.088C60.8148 33.376 60.7826 33.568 60.7183 33.656C60.6539 33.744 60.5413 33.8 60.3724 33.8H53.4874C53.5035 34.44 53.592 35 53.7528 35.48C53.9137 35.96 54.1389 36.352 54.4204 36.664C54.7019 36.976 55.0398 37.216 55.4339 37.368C55.828 37.528 56.2623 37.6 56.753 37.6C57.2034 37.6 57.5895 37.552 57.9192 37.448C58.249 37.344 58.5305 37.232 58.7638 37.104C58.997 36.976 59.1981 36.864 59.359 36.76C59.5199 36.656 59.6566 36.608 59.7772 36.608C59.8577 36.608 59.922 36.624 59.9783 36.656C60.0346 36.688 60.0829 36.728 60.1231 36.784L60.6459 37.456C60.4127 37.728 60.1392 37.96 59.8335 38.16C59.5198 38.36 59.1901 38.52 58.8281 38.648C58.4742 38.776 58.0962 38.872 57.7182 38.936C57.3321 39 56.9621 39.032 56.5841 39.032C55.8682 39.032 55.2087 38.912 54.6054 38.68C54.0022 38.44 53.4794 38.096 53.045 37.632C52.6027 37.168 52.2648 36.592 52.0155 35.912C51.7662 35.232 51.6455 34.448 51.6455 33.56C51.6455 32.848 51.7581 32.184 51.9753 31.568C52.1925 30.952 52.5142 30.416 52.9324 29.96C53.3507 29.504 53.8574 29.144 54.4606 28.888C55.0639 28.632 55.7395 28.504 56.4875 28.504L56.4956 28.52ZM56.5278 29.864C55.6671 29.864 54.9835 30.112 54.4848 30.616C53.9861 31.12 53.6724 31.808 53.5437 32.68H59.1499C59.1499 32.272 59.0936 31.888 58.9729 31.544C58.8523 31.2 58.6834 30.904 58.4581 30.656C58.2329 30.408 57.9595 30.216 57.6297 30.072C57.2999 29.936 56.938 29.864 56.5278 29.864Z" fill="#194DB6"/>
<path d="M56.5922 39.176C55.8683 39.176 55.1846 39.056 54.5733 38.816C53.954 38.576 53.4151 38.208 52.9727 37.736C52.5223 37.264 52.1764 36.672 51.919 35.984C51.6697 35.296 51.541 34.496 51.541 33.6C51.541 32.88 51.6536 32.192 51.8788 31.568C52.104 30.936 52.4338 30.384 52.8601 29.92C53.2864 29.456 53.8092 29.08 54.4205 28.824C55.0318 28.56 55.7315 28.424 56.4876 28.424C57.115 28.424 57.7102 28.528 58.241 28.736C58.7799 28.944 59.2545 29.248 59.6486 29.648C60.0427 30.048 60.3564 30.544 60.5816 31.12C60.8068 31.696 60.9114 32.36 60.9114 33.104C60.9114 33.416 60.8792 33.624 60.7988 33.736C60.7103 33.864 60.5655 33.928 60.3564 33.928H53.592C53.6162 34.512 53.6966 35.024 53.8494 35.464C54.0022 35.928 54.2194 36.312 54.4929 36.616C54.7664 36.912 55.0881 37.144 55.4661 37.296C55.8442 37.448 56.2704 37.52 56.737 37.52C57.1713 37.52 57.5574 37.472 57.871 37.376C58.1928 37.28 58.4663 37.168 58.6995 37.048C58.9328 36.92 59.1258 36.808 59.2867 36.712C59.4717 36.6 59.6245 36.544 59.7693 36.544C59.8658 36.544 59.9543 36.568 60.0266 36.608C60.099 36.648 60.1553 36.704 60.2116 36.768L60.7908 37.504L60.7344 37.576C60.4932 37.856 60.2116 38.104 59.898 38.304C59.5762 38.504 59.2304 38.672 58.8684 38.808C58.5065 38.936 58.1284 39.04 57.7424 39.104C57.3563 39.168 56.9702 39.2 56.5922 39.2V39.176ZM56.4957 28.632C55.7637 28.632 55.0961 28.76 54.517 29.008C53.9379 29.256 53.4312 29.608 53.029 30.056C52.6269 30.504 52.3051 31.032 52.096 31.632C51.8788 32.232 51.7743 32.896 51.7743 33.592C51.7743 34.464 51.8949 35.24 52.1362 35.904C52.3775 36.568 52.7153 37.128 53.1416 37.584C53.5679 38.032 54.0827 38.376 54.6618 38.608C55.249 38.84 55.9005 38.96 56.6002 38.96C56.9622 38.96 57.3402 38.928 57.7102 38.864C58.0802 38.8 58.4502 38.704 58.8041 38.584C59.1499 38.456 59.4797 38.296 59.7853 38.104C60.0588 37.928 60.3082 37.72 60.5173 37.488L60.0508 36.888C60.0186 36.84 59.9784 36.808 59.9382 36.784C59.8979 36.76 59.8497 36.752 59.7934 36.752C59.6969 36.752 59.5762 36.8 59.4314 36.888C59.2706 36.992 59.0695 37.104 58.8282 37.232C58.5869 37.36 58.2973 37.48 57.9595 37.584C57.6217 37.688 57.2195 37.744 56.7611 37.744C56.2624 37.744 55.812 37.664 55.4018 37.504C54.9916 37.344 54.6377 37.096 54.3481 36.768C54.0586 36.44 53.8253 36.032 53.6564 35.544C53.4955 35.056 53.399 34.48 53.391 33.832V33.72H60.3805C60.5092 33.72 60.5977 33.688 60.6379 33.632C60.6701 33.592 60.7103 33.464 60.7103 33.12C60.7103 32.408 60.6058 31.76 60.3886 31.216C60.1795 30.672 59.8819 30.2 59.5119 29.824C59.1419 29.448 58.6915 29.152 58.1847 28.96C57.67 28.76 57.1069 28.664 56.5117 28.664L56.4957 28.632ZM59.2625 32.792H53.4151L53.4312 32.664C53.5599 31.768 53.8896 31.056 54.4044 30.536C54.9272 30.016 55.6431 29.752 56.5278 29.752C56.9461 29.752 57.3322 29.824 57.67 29.968C58.0078 30.112 58.2973 30.32 58.5386 30.576C58.7719 30.832 58.9569 31.144 59.0775 31.504C59.1982 31.856 59.2625 32.256 59.2625 32.672V32.784V32.792ZM53.6725 32.568H59.0373C59.0293 32.216 58.973 31.88 58.8684 31.576C58.7558 31.248 58.5869 30.96 58.3778 30.728C58.1687 30.496 57.9032 30.304 57.5895 30.176C57.2758 30.04 56.9219 29.976 56.5359 29.976C55.7074 29.976 55.0479 30.216 54.5653 30.696C54.1068 31.152 53.8092 31.784 53.6725 32.568Z" fill="#194DB6"/>
</g>
<defs>
<clipPath id="clip0_147_1824">
<rect width="61" height="48" fill="white"/>
</clipPath>
</defs>
</svg>
